<svg width="8" height="6" fill="none" xmlns="http://www.w3.org/2000/svg"><path fill-rule="evenodd" clip-rule="evenodd" d="M0 3c0-.088.03-.173.084-.236a.267.267 0 01.202-.097h6.738L5.226.57a.364.364 0 01-.084-.236.36.36 0 01.084-.236A.267.267 0 015.428 0c.076 0 .149.035.202.098l2.286 2.666a.342.342 0 01.062.108.382.382 0 01-.062.364L5.63 5.902A.267.267 0 015.428 6a.267.267 0 01-.202-.098.364.364 0 01-.084-.236c0-.088.03-.173.084-.236l1.798-2.097H.286a.267.267 0 01-.202-.097A.363.363 0 010 3z" fill="#000"/></svg>