<svg width="25" height="25" fill="none" xmlns="http://www.w3.org/2000/svg"><g clip-path="url(#clip0)"><path fill-rule="evenodd" clip-rule="evenodd" d="M12.5 23.438a10.937 10.937 0 100-21.875 10.937 10.937 0 000 21.875zM12.5 0a12.5 12.5 0 110 25 12.5 12.5 0 010-25zM7.033 11.719a.781.781 0 100 1.562h9.051l-3.354 3.353a.782.782 0 101.106 1.107l4.687-4.688a.782.782 0 000-1.106l-4.687-4.688a.782.782 0 00-1.106 1.107l3.354 3.353H7.032z" fill="#000"/></g><defs><clipPath id="clip0"><path fill="#fff" transform="rotate(-90 12.5 12.5)" d="M0 0h25v25H0z"/></clipPath></defs></svg>