<svg width="70" height="70" fill="none" xmlns="http://www.w3.org/2000/svg"><g clip-path="url(#clip0)" fill="#F2994A"><path d="M33.819 26.69a1.035 1.035 0 001.56-.177l6.825-10.3a1.026 1.026 0 00-1.71-1.133l-6.15 9.282-3.417-3.245a1.026 1.026 0 00-1.412 1.488l4.304 4.086z"/><path d="M34.518 42.33c.196.09.413.138.629.138h.008a1.5 1.5 0 00.636-.146c15.593-7.415 18.235-23.414 18.673-28.141a2.451 2.451 0 00-1.512-2.501 8.961 8.961 0 01-5.506-7.52 2.025 2.025 0 00-2.01-1.836h-.012l-21.007.124a2.009 2.009 0 00-2 1.871 8.963 8.963 0 01-5.427 7.576 2.443 2.443 0 00-1.473 2.514c.493 4.722 3.323 20.69 19.001 27.922zM17.797 13.78a11.004 11.004 0 006.662-9.282l20.947-.123a11.006 11.006 0 006.76 9.199c.17.07.273.238.257.418-.412 4.43-2.872 19.367-17.28 26.367-14.49-6.83-17.124-21.738-17.587-26.163a.404.404 0 01.241-.416z"/><path d="M20.357 19.464c.124.456.703.874 1.259.72.546-.15.869-.711.72-1.258a33.836 33.836 0 01-.653-2.904 14.42 14.42 0 005.867-7.69l14.809-.086a14.42 14.42 0 005.957 7.62 33.82 33.82 0 01-.62 2.913 1.026 1.026 0 101.986.515 35.61 35.61 0 00.71-3.422c.1-.635-.191-1.26-.739-1.59a12.375 12.375 0 01-5.442-6.977 1.586 1.586 0 00-1.507-1.112h-.01l-15.504.09c-.69.005-1.309.47-1.503 1.131a12.375 12.375 0 01-5.36 7.04 1.567 1.567 0 00-.72 1.599c.191 1.133.443 2.281.75 3.411zm27.253 3.041a1.025 1.025 0 00-1.34.556c-2.37 5.743-6.12 10.11-11.153 12.984-5.07-2.819-8.876-7.148-11.312-12.873a1.026 1.026 0 00-1.888.803c2.66 6.247 6.848 10.957 12.451 13.998a1.57 1.57 0 001.521-.009c5.56-3.102 9.691-7.853 12.277-14.121a1.024 1.024 0 00-.557-1.338zM6.58 54.793a3.632 3.632 0 00-3.629 3.628c0 2 1.628 3.628 3.628 3.628s3.628-1.627 3.628-3.628c0-2-1.627-3.628-3.628-3.628zm0 5.205c-.87 0-1.578-.707-1.578-1.577s.708-1.577 1.577-1.577c.87 0 1.578.708 1.578 1.577a1.58 1.58 0 01-1.578 1.577z"/><path d="M69.265 44.755a4.271 4.271 0 00-5.9-1.141l-13.404 8.971-2.861-.16-.074-.733a6.223 6.223 0 00-5.387-5.566L27.195 44.86c-.489-.076-2.053-.525-6.351-2.99a15.95 15.95 0 00-7.308-2.103v-2.683a2.444 2.444 0 00-2.441-2.44H2.44A2.444 2.444 0 000 37.083v26.42a2.444 2.444 0 002.441 2.442h8.654a2.444 2.444 0 002.44-2.441v-.728l12.627 4.781c.028.01 1.053.394 2.938.216l20.98-3.024.015-.002a10.315 10.315 0 004.926-2.223l13.55-12.186a4.271 4.271 0 00.694-5.584zm-2.06 4.055L53.668 60.983a8.262 8.262 0 01-3.89 1.738l-20.964 3.023a.313.313 0 00-.018.002l-.01.002a4.606 4.606 0 01-1.942-.124l-13.31-5.04v-11.71a1.025 1.025 0 10-2.05 0v14.63a.39.39 0 01-.39.391H2.44a.39.39 0 01-.39-.39v-26.42a.39.39 0 01.39-.391h8.654a.39.39 0 01.39.39v7.158a1.025 1.025 0 102.05 0V41.82c2.2.097 4.364.725 6.288 1.829 5.184 2.973 6.632 3.178 7.108 3.245l.054.007 14.446 1.266a4.178 4.178 0 013.555 3.728l.054.546-19.34 1.194a2.337 2.337 0 01-1.634-.838 1.025 1.025 0 10-1.574 1.314c.752.902 1.814 1.442 2.987 1.564.634.066 20.69-1.249 20.69-1.249l4.02.226a1.02 1.02 0 00.627-.172l13.692-9.163a2.216 2.216 0 013.061.591 2.218 2.218 0 01-.365 2.902z"/></g><defs><clipPath id="clip0"><path fill="#fff" d="M0 0h70v70H0z"/></clipPath></defs></svg>