<svg width="71" height="68" fill="none" xmlns="http://www.w3.org/2000/svg"><path d="M70.365 37.233a27.67 27.67 0 00-7.953-16.781 27.454 27.454 0 00-13.505-7.416V9.562a4.656 4.656 0 003.526-4.51 4.654 4.654 0 00-4.648-4.65H37.94a4.654 4.654 0 00-4.649 4.648 4.656 4.656 0 003.527 4.511v3.484a27.453 27.453 0 00-13.464 7.406 27.76 27.76 0 00-2.321 2.634c-.035-.002-.07-.005-.104-.005h-9.743a1.367 1.367 0 000 2.735h7.986a27.418 27.418 0 00-2.426 5.255H1.867a1.367 1.367 0 000 2.734h14.108c-.394 1.73-.62 3.49-.679 5.255H9.25a1.367 1.367 0 000 2.734h6.09c.115 1.77.4 3.53.853 5.256H7.336a1.367 1.367 0 000 2.734h9.73a27.459 27.459 0 006.289 9.725 27.67 27.67 0 0016.799 7.955c.903.089 1.807.133 2.71.133 5.334 0 10.602-1.544 15.071-4.454a1.367 1.367 0 00-1.492-2.292c-9.783 6.371-22.886 4.993-31.154-3.275-9.703-9.702-9.703-25.488 0-35.19 9.701-9.702 25.487-9.702 35.19 0 8.257 8.257 9.642 21.349 3.293 31.127a1.367 1.367 0 102.293 1.49c3.392-5.225 4.92-11.536 4.3-17.77zM36.027 5.052c0-1.056.858-1.914 1.914-1.914h9.844c1.055 0 1.914.858 1.914 1.914a1.916 1.916 0 01-1.914 1.914H37.94a1.916 1.916 0 01-1.914-1.914zm3.526 7.524V9.7h6.62v2.87a27.858 27.858 0 00-6.62.006z" fill="#F2994A"/><path d="M61.446 57.175c-.36 0-.712.146-.966.4a1.372 1.372 0 00-.401.967 1.372 1.372 0 001.367 1.367c.36 0 .711-.145.967-.4.254-.255.4-.608.4-.967 0-.36-.146-.712-.4-.967a1.38 1.38 0 00-.967-.4zM42.884 18.771c-11.695 0-21.21 9.514-21.21 21.21 0 11.694 9.515 21.209 21.21 21.209 11.694 0 21.209-9.515 21.209-21.21s-9.515-21.209-21.21-21.209zm0 39.684c-10.188 0-18.475-8.288-18.475-18.475 0-10.187 8.287-18.475 18.475-18.475 10.187 0 18.475 8.288 18.475 18.475 0 10.187-8.288 18.475-18.475 18.475z" fill="#F2994A"/><path d="M51.532 29.398L44.76 36.17a4.223 4.223 0 00-1.876-.438c-.674 0-1.31.158-1.877.438l-3.03-3.03a1.367 1.367 0 00-1.934 1.933l3.03 3.03a4.221 4.221 0 00-.438 1.877 4.253 4.253 0 004.249 4.249 4.253 4.253 0 004.248-4.249 4.22 4.22 0 00-.438-1.876l6.573-6.573.198-.199a1.367 1.367 0 00-1.933-1.934zm-8.648 12.096a1.515 1.515 0 01-1.514-1.514c0-.834.679-1.514 1.514-1.514.834 0 1.514.68 1.514 1.514 0 .835-.68 1.514-1.514 1.514zm14.618-2.864h-1.267a1.367 1.367 0 000 2.734h1.267a1.367 1.367 0 000-2.734zm-27.97-.034h-1.267a1.367 1.367 0 000 2.735h1.267a1.367 1.367 0 000-2.735zm13.368-10.6c.755 0 1.367-.612 1.367-1.367v-1.267a1.367 1.367 0 00-2.734 0v1.267c0 .755.612 1.367 1.367 1.367zm-.033 23.969c-.755 0-1.367.612-1.367 1.367v1.267a1.367 1.367 0 002.734 0v-1.267c0-.755-.612-1.367-1.367-1.367zm-41-4.915A1.371 1.371 0 00.5 48.416c0 .361.146.713.4.967.255.254.608.4.967.4.36 0 .712-.146.967-.4.254-.254.4-.607.4-.967s-.146-.712-.4-.966a1.377 1.377 0 00-.967-.4z" fill="#F2994A"/></svg>