<svg width="70" height="70" fill="none" xmlns="http://www.w3.org/2000/svg"><path d="M50.04 54.14a1.368 1.368 0 100 2.736 1.368 1.368 0 000-2.735z" fill="#000"/><path d="M53.405 49.72l-6.498-2.166-2.333-4.666c2.102-2.139 3.561-4.97 4.053-7.921l.291-1.744h2.488a4.106 4.106 0 004.102-4.102v-8.613C55.508 9.2 46.308 0 35 0 23.663 0 14.492 9.173 14.492 20.508v8.613a4.108 4.108 0 002.735 3.866v1.603a4.106 4.106 0 004.101 4.101h1.2a14.833 14.833 0 002.896 4.2l-2.331 4.663-6.498 2.166c-7.556 2.52-13.04 10.473-13.04 18.913 0 .755.612 1.367 1.367 1.367h60.156c.755 0 1.367-.612 1.367-1.367 0-8.44-5.484-16.394-13.04-18.913zm-.632-20.599c0 .754-.613 1.367-1.367 1.367H49.32c.347-2.692.579-5.556.672-8.378l.007-.235h2.774v7.246zm-34.18 1.367a1.369 1.369 0 01-1.366-1.367v-7.246h2.775l.014.43v.016c.097 2.744.325 5.534.665 8.167h-2.087zm2.735 5.469a1.369 1.369 0 01-1.367-1.367v-1.367h1.12l.292 1.744a14 14 0 00.202.99h-.247zm-1.365-16.816H17.28C17.97 9.978 25.617 2.734 35 2.734c9.34 0 17.02 7.243 17.721 16.407h-2.684c-.099-7.55-6.247-13.672-13.813-13.672h-2.447c-7.566 0-13.715 6.121-13.814 13.672zM33.776 8.203h2.448c6.126 0 11.084 5.011 11.08 11.13 0 .43-.003.805-.01 1.146v.014l-1.71-.245a21.969 21.969 0 01-12.352-6.176 1.368 1.368 0 00-.966-.4 12.37 12.37 0 00-9.51 4.499c.572-5.567 5.279-9.968 11.02-9.968zM24.41 35.957c-.685-2.277-1.468-8.976-1.64-13.269l1.84-2.453a9.623 9.623 0 017.115-3.813 24.729 24.729 0 0013.472 6.533l2.013.288a84.136 84.136 0 01-.803 8.356v.002c-.126.848-.225 1.393-.477 2.916-.724 4.343-3.965 8.27-8.242 9.34-1.76.439-3.616.439-5.375 0-2.671-.668-5.12-2.517-6.7-5.166h2.786a4.108 4.108 0 003.867 2.735H35a4.1 4.1 0 100-8.203h-2.734a4.103 4.103 0 00-3.87 2.734H24.41zm7.74 10.666c.938.198 1.895.299 2.85.299.748 0 1.496-.063 2.236-.184l-2.416 2.555-2.67-2.67zm.79 4.657l-4.336 4.586a52.104 52.104 0 01-3.061-7.098l1.628-3.257 5.77 5.77zm9.657-6.232l1.86 3.72a52.073 52.073 0 01-3.062 7.1l-4.64-4.641 5.842-6.179zm-11.699-7.724c0-.755.613-1.367 1.368-1.367H35a1.367 1.367 0 010 2.734h-2.734a1.369 1.369 0 01-1.368-1.367zM6.344 67.266c.542-6.773 5.049-12.93 11.115-14.952l5.755-1.918a54.813 54.813 0 003.892 8.44l.007.015a54.825 54.825 0 003.743 5.715l1.682 2.7H6.344zM35 66.046l-1.854-2.976a1.424 1.424 0 00-.067-.097A52.126 52.126 0 0130 58.37l4.876-5.157 5.137 5.138a52.072 52.072 0 01-3.091 4.62c-.067.09.028-.05-1.921 3.075zm2.462 1.22l1.682-2.7a54.797 54.797 0 003.769-5.76l.02-.037.002-.004a54.764 54.764 0 003.85-8.37l5.756 1.919c6.066 2.023 10.573 8.179 11.115 14.952H37.462z" fill="#F2994A"/><path d="M59.547 61.733a13.67 13.67 0 00-3.87-4.699 1.367 1.367 0 10-1.667 2.167 10.917 10.917 0 013.091 3.754 1.367 1.367 0 102.446-1.222z" fill="#000"/></svg>