<svg width="23" height="23" fill="none" xmlns="http://www.w3.org/2000/svg"><g clip-path="url(#clip0)"><path d="M11.5 0C5.15 0 0 5.148 0 11.5 0 17.85 5.15 23 11.5 23 17.852 23 23 17.85 23 11.5 23 5.148 17.852 0 11.5 0zM7.367 4.568c.237-.014.451.127.614.379l1.572 2.981a.865.865 0 01-.175.985l-.72.72a.353.353 0 00-.075.205c.276 1.069 1.114 2.055 1.853 2.733.74.678 1.534 1.596 2.565 1.814.127.035.284.048.375-.037l.836-.852c.29-.219.707-.325 1.015-.146h.014l2.837 1.675c.417.26.46.765.162 1.072l-1.954 1.939c-.289.296-.672.395-1.045.396-1.647-.05-3.204-.858-4.482-1.689-2.099-1.527-4.024-3.42-5.232-5.708-.463-.96-1.008-2.183-.956-3.254.005-.403.114-.797.397-1.057L6.922 4.77a.764.764 0 01.445-.202z" fill="#F2994A"/></g><defs><clipPath id="clip0"><path fill="#fff" d="M0 0h23v23H0z"/></clipPath></defs></svg>