<svg width="1052" height="953" fill="none" xmlns="http://www.w3.org/2000/svg"><path fill-rule="evenodd" clip-rule="evenodd" d="M-250.873 97.756l40.265-8.336c40.265-8.336 120.796-25.007 184.732-4.158 63.151 20.483 108.924 78.119 154.696 135.755 45.773 57.637 92.33 115.641 145.054 158.415 52.724 42.775 112.4 70.688 182.502 76.309 70.103 5.621 151.418-10.683 221.521-5.063 70.103 5.621 129.779 33.534 179.027 83.74 50.033 50.573 88.854 123.071 108.265 159.32l19.41 36.249L831 715.001 717.5 675.5c-29.838-13.956-43.039 102.281-103.5 74-59.675-27.913-90.825 18.913-150.5-9-59.676-27.913-62.148-11.629-121.824-39.542l-179.026-83.74-179.812-84.107-179.026-83.739-149.974-70.15L-376 365.265l125.127-267.51z" fill="#F2994A" fill-opacity=".52"/><g filter="url(#filter0_d)"><circle cx="81.396" cy="182.397" r="70" transform="rotate(-78.662 81.396 182.397)" fill="#FFA758"/></g><g filter="url(#filter1_d)"><circle cx="180.369" cy="222.37" r="28.88" transform="rotate(-99.787 180.369 222.37)" fill="#FE9335"/></g><g filter="url(#filter2_d)"><circle cx="303.339" cy="395.339" r="43.567" transform="rotate(-99.787 303.339 395.339)" fill="#F5B072"/></g><g filter="url(#filter3_d)"><circle cx="284.667" cy="355.667" r="13.559" transform="rotate(-99.787 284.667 355.667)" fill="#FE9335"/></g><defs><filter id="filter0_d" x="7.383" y="112.383" width="148.027" height="148.027" filterUnits="userSpaceOnUse" color-interpolation-filters="sRGB"><feFlood flood-opacity="0" result="BackgroundImageFix"/><feColorMatrix in="SourceAlpha" values="0 0 0 0 0 0 0 0 0 0 0 0 0 0 0 0 0 0 127 0"/><feOffset dy="4"/><feGaussianBlur stdDeviation="2"/><feColorMatrix values="0 0 0 0 0 0 0 0 0 0 0 0 0 0 0 0 0 0 0.25 0"/><feBlend in2="BackgroundImageFix" result="effect1_dropShadow"/><feBlend in="SourceGraphic" in2="effect1_dropShadow" result="shape"/></filter><filter id="filter1_d" x="147.484" y="193.485" width="65.77" height="65.77" filterUnits="userSpaceOnUse" color-interpolation-filters="sRGB"><feFlood flood-opacity="0" result="BackgroundImageFix"/><feColorMatrix in="SourceAlpha" values="0 0 0 0 0 0 0 0 0 0 0 0 0 0 0 0 0 0 127 0"/><feOffset dy="4"/><feGaussianBlur stdDeviation="2"/><feColorMatrix values="0 0 0 0 0 0 0 0 0 0 0 0 0 0 0 0 0 0 0.25 0"/><feBlend in2="BackgroundImageFix" result="effect1_dropShadow"/><feBlend in="SourceGraphic" in2="effect1_dropShadow" result="shape"/></filter><filter id="filter2_d" x="255.765" y="351.765" width="95.148" height="95.148" filterUnits="userSpaceOnUse" color-interpolation-filters="sRGB"><feFlood flood-opacity="0" result="BackgroundImageFix"/><feColorMatrix in="SourceAlpha" values="0 0 0 0 0 0 0 0 0 0 0 0 0 0 0 0 0 0 127 0"/><feOffset dy="4"/><feGaussianBlur stdDeviation="2"/><feColorMatrix values="0 0 0 0 0 0 0 0 0 0 0 0 0 0 0 0 0 0 0.25 0"/><feBlend in2="BackgroundImageFix" result="effect1_dropShadow"/><feBlend in="SourceGraphic" in2="effect1_dropShadow" result="shape"/></filter><filter id="filter3_d" x="267.105" y="342.106" width="35.123" height="35.123" filterUnits="userSpaceOnUse" color-interpolation-filters="sRGB"><feFlood flood-opacity="0" result="BackgroundImageFix"/><feColorMatrix in="SourceAlpha" values="0 0 0 0 0 0 0 0 0 0 0 0 0 0 0 0 0 0 127 0"/><feOffset dy="4"/><feGaussianBlur stdDeviation="2"/><feColorMatrix values="0 0 0 0 0 0 0 0 0 0 0 0 0 0 0 0 0 0 0.25 0"/><feBlend in2="BackgroundImageFix" result="effect1_dropShadow"/><feBlend in="SourceGraphic" in2="effect1_dropShadow" result="shape"/></filter></defs></svg>