<svg width="1034" height="1061" fill="none" xmlns="http://www.w3.org/2000/svg"><path fill-rule="evenodd" clip-rule="evenodd" d="M1364.19 862.264l-39.5 11.419c-39.5 11.42-118.51 34.259-183.86 18.408-64.55-15.545-114.63-69.476-164.717-123.406-50.086-53.93-100.983-108.166-156.852-146.743-55.869-38.576-117.522-61.799-187.849-61.99-70.328-.192-150.141 22.342-220.469 22.15-70.327-.191-131.98-23.414-184.957-69.667-53.789-46.559-98.091-115.844-120.243-150.486l-22.15-34.642 154.297 3.083 116.211 30.619c30.826 11.611 16.886-47.965 79.35-24.437 61.652 23.223 45.965-123.156 107.617-99.934l185.769 69.973 184.957 69.668c61.653 23.222 124.116 46.75 185.766 69.973 61.66 23.222 123.31 46.445 184.96 69.667 62.46 23.528 124.12 46.751 154.94 58.362l30.83 11.611-104.1 276.372z" fill="#FF7E0C" fill-opacity=".52"/><g filter="url(#filter0_d)"><circle cx="1026.38" cy="803.529" r="70" transform="rotate(96.91 1026.38 803.529)" fill="#FFA758"/></g><g filter="url(#filter1_d)"><circle cx="924.613" cy="771.317" r="28.88" transform="rotate(75.785 924.613 771.317)" fill="#FE9335"/></g><g filter="url(#filter2_d)"><circle cx="788.656" cy="608.358" r="43.567" transform="rotate(75.785 788.656 608.358)" fill="#F5B072"/></g><defs><filter id="filter0_d" x="952.37" y="733.522" width="148.014" height="148.014" filterUnits="userSpaceOnUse" color-interpolation-filters="sRGB"><feFlood flood-opacity="0" result="BackgroundImageFix"/><feColorMatrix in="SourceAlpha" values="0 0 0 0 0 0 0 0 0 0 0 0 0 0 0 0 0 0 127 0"/><feOffset dy="4"/><feGaussianBlur stdDeviation="2"/><feColorMatrix values="0 0 0 0 0 0 0 0 0 0 0 0 0 0 0 0 0 0 0.25 0"/><feBlend in2="BackgroundImageFix" result="effect1_dropShadow"/><feBlend in="SourceGraphic" in2="effect1_dropShadow" result="shape"/></filter><filter id="filter1_d" x="891.726" y="742.43" width="65.774" height="65.774" filterUnits="userSpaceOnUse" color-interpolation-filters="sRGB"><feFlood flood-opacity="0" result="BackgroundImageFix"/><feColorMatrix in="SourceAlpha" values="0 0 0 0 0 0 0 0 0 0 0 0 0 0 0 0 0 0 127 0"/><feOffset dy="4"/><feGaussianBlur stdDeviation="2"/><feColorMatrix values="0 0 0 0 0 0 0 0 0 0 0 0 0 0 0 0 0 0 0.25 0"/><feBlend in2="BackgroundImageFix" result="effect1_dropShadow"/><feBlend in="SourceGraphic" in2="effect1_dropShadow" result="shape"/></filter><filter id="filter2_d" x="741.079" y="564.78" width="95.154" height="95.154" filterUnits="userSpaceOnUse" color-interpolation-filters="sRGB"><feFlood flood-opacity="0" result="BackgroundImageFix"/><feColorMatrix in="SourceAlpha" values="0 0 0 0 0 0 0 0 0 0 0 0 0 0 0 0 0 0 127 0"/><feOffset dy="4"/><feGaussianBlur stdDeviation="2"/><feColorMatrix values="0 0 0 0 0 0 0 0 0 0 0 0 0 0 0 0 0 0 0.25 0"/><feBlend in2="BackgroundImageFix" result="effect1_dropShadow"/><feBlend in="SourceGraphic" in2="effect1_dropShadow" result="shape"/></filter></defs></svg>