<svg width="30" height="30" fill="none" xmlns="http://www.w3.org/2000/svg"><path d="M15 0C9.729 0 5.332 4.246 5.332 9.668c0 2.063.62 3.902 1.81 5.625l7.118 11.108a.879.879 0 001.48 0l7.15-11.146a9.625 9.625 0 001.778-5.587C24.668 4.338 20.331 0 15 0zm0 14.063a4.4 4.4 0 01-4.395-4.395A4.4 4.4 0 0115 5.273a4.4 4.4 0 014.395 4.395A4.4 4.4 0 0115 14.063z" fill="#F93A3A"/><path d="M21.87 20.197l-4.425 6.92c-1.145 1.785-3.751 1.78-4.891 0L8.12 20.2c-3.9.901-6.305 2.553-6.305 4.527C1.816 28.153 8.61 30 15 30c6.39 0 13.184-1.848 13.184-5.273 0-1.976-2.408-3.629-6.313-4.53z" fill="#FFED4B"/></svg>