<svg width="25" height="25" fill="none" xmlns="http://www.w3.org/2000/svg"><g clip-path="url(#clip0)"><circle cx="12.5" cy="12.5" r="12.5" fill="#fff"/><path d="M21.337 3.66C16.455-1.222 8.54-1.22 3.66 3.661c-4.88 4.882-4.88 12.797.003 17.678 4.882 4.88 12.797 4.88 17.678-.003a12.5 12.5 0 00-.003-17.678zM18.93 17.411l-.001.002v-.005l-.633.63a3.334 3.334 0 01-3.146.9 11.075 11.075 0 01-3.217-1.442 14.864 14.864 0 01-2.538-2.046 14.985 14.985 0 01-1.895-2.3 11.667 11.667 0 01-1.425-2.883 3.333 3.333 0 01.833-3.404l.742-.742a.53.53 0 01.748-.002l.002.002 2.341 2.342a.53.53 0 01.002.748l-.002.002-1.375 1.375a1.12 1.12 0 00-.116 1.458 16.084 16.084 0 001.646 1.92c.666.67 1.391 1.28 2.166 1.822a1.13 1.13 0 001.442-.125l1.329-1.35a.53.53 0 01.748-.002l.002.002 2.346 2.35a.53.53 0 01.002.748z" fill="#47C13C"/></g><defs><clipPath id="clip0"><path fill="#fff" d="M0 0h25v25H0z"/></clipPath></defs></svg>